<svg width="414" height="379" viewBox="0 0 414 379" fill="none" xmlns="http://www.w3.org/2000/svg">
<g clip-path="url(#clip0)">
<path opacity="0.5" d="M48.9054 51.7421C46.1496 54.9528 45.0885 59.4671 43.9017 63.7111C34.3469 97.9137 10.8018 125.424 -16.0121 145.075C-27.3672 153.399 -41.1915 164.561 -38.7073 179.485C-37.3696 187.5 -31.5009 193.4 -27.1409 199.928C-17.9934 213.596 -15.0264 232.175 -19.3864 248.537C-24.3449 267.155 -38.2044 284.526 -33.9148 303.351C-31.2696 314.939 -22.2881 323.185 -13.6535 330.273C-0.182899 341.323 13.7169 351.675 28.0457 361.328C37.6508 367.798 47.8695 374.093 59.0637 374.914C68.9203 375.638 78.5757 372.041 87.9344 368.493C96.1113 365.388 104.494 362.158 111.097 355.94C115.407 351.879 118.842 346.641 123.629 343.319C134.874 335.517 149.317 340.461 162.211 343.802C192.635 351.643 225.197 348.779 254.148 335.719C298.558 315.682 332.407 273.605 375.846 251.029C394.524 241.319 414.84 235.294 432.134 222.789C441.878 215.669 450.251 206.97 456.876 197.084C469.951 177.718 477.022 153.027 474.98 128.857C472.939 104.688 461.498 81.3966 443.53 67.7522C424.294 53.1471 400 50.4192 378.114 41.6512C355.525 32.584 335.419 17.0084 313.046 7.29896C294.931 -0.545085 275.215 -4.39493 255.348 -3.968C235.48 -3.54107 215.964 1.15179 198.232 9.76615C173.867 21.5951 149.181 49.1928 122.045 51.2882C102.714 52.7367 64.0021 34.158 48.9054 51.7421Z" fill="#8DD7AA"/>
<path opacity="0.5" d="M202.087 333.6C338.68 320.811 447.672 293.331 445.528 272.222C443.383 251.112 330.915 244.368 194.323 257.157C57.7301 269.946 -51.2618 297.426 -49.1176 318.535C-46.9734 339.645 65.4949 346.389 202.087 333.6Z" fill="#8DD7AA"/>
<path d="M28.7054 286.01C28.7054 286.01 21.3834 262.135 30.0783 244.566C33.7763 237.218 34.8915 228.916 33.2566 220.908C32.449 217.111 31.2807 213.394 29.7665 209.803" stroke="#535461" stroke-width="2" stroke-miterlimit="10"/>
<path d="M35.2028 198.703C35.2028 201.629 29.671 210.112 29.671 210.112C29.671 210.112 24.1393 201.629 24.1393 198.703C24.0832 197.974 24.1842 197.243 24.4359 196.553C24.6877 195.864 25.0849 195.232 25.6027 194.697C26.1204 194.162 26.7476 193.735 27.4451 193.443C28.1425 193.151 28.8951 193 29.6559 193C30.4168 193 31.1694 193.151 31.8669 193.443C32.5643 193.735 33.1915 194.162 33.7092 194.697C34.227 195.232 34.6242 195.864 34.876 196.553C35.1278 197.243 35.2287 197.974 35.1726 198.703H35.2028Z" fill="#24A148"/>
<path d="M44.3 214.906C42.6455 217.364 33.1912 221.608 33.1912 221.608C33.1912 221.608 33.3622 211.609 35.0167 209.151C35.8582 208.077 37.0927 207.349 38.4711 207.114C39.8496 206.879 41.2695 207.155 42.4446 207.886C43.6196 208.617 44.4624 209.748 44.803 211.051C45.1436 212.355 44.9566 213.734 44.2798 214.911L44.3 214.906Z" fill="#24A148"/>
<path d="M43.9027 242.605C41.1821 243.923 30.8276 243.011 30.8276 243.011C30.8276 243.011 36.2337 234.46 38.9543 233.142C40.2442 232.628 41.689 232.601 42.9985 233.068C44.3081 233.534 45.3855 234.458 46.0145 235.656C46.6434 236.853 46.7773 238.234 46.3893 239.522C46.0014 240.811 45.1202 241.91 43.9228 242.6L43.9027 242.605Z" fill="#24A148"/>
<path d="M38.6877 263.516C36.2387 265.254 25.8491 266.041 25.8491 266.041C25.8491 266.041 29.671 256.737 32.1251 254.994C33.306 254.305 34.7128 254.066 36.0686 254.323C37.4244 254.579 38.6309 255.314 39.4507 256.382C40.2706 257.45 40.6443 258.774 40.4985 260.094C40.3526 261.413 39.6977 262.632 38.6626 263.511L38.6877 263.516Z" fill="#24A148"/>
<path d="M21.6248 222.173C23.8124 224.21 33.9958 226.325 33.9958 226.325C33.9958 226.325 31.4813 216.615 29.3139 214.573C28.8082 214.029 28.1911 213.59 27.5011 213.285C26.8111 212.98 26.063 212.814 25.3035 212.799C24.5439 212.783 23.7892 212.918 23.0863 213.195C22.3835 213.472 21.7475 213.885 21.2182 214.408C20.6888 214.931 20.2774 215.553 20.0095 216.236C19.7417 216.919 19.6231 217.647 19.6612 218.375C19.6994 219.104 19.8934 219.817 20.2313 220.47C20.5691 221.124 21.0435 221.703 21.6248 222.173Z" fill="#24A148"/>
<path d="M15.8466 246.68C18.5672 247.998 28.9217 247.086 28.9217 247.086C28.9217 247.086 23.5156 238.535 20.795 237.217C19.5051 236.703 18.0603 236.676 16.7507 237.142C15.4412 237.609 14.3638 238.533 13.7348 239.731C13.1059 240.928 12.972 242.309 13.36 243.597C13.7479 244.886 14.6291 245.985 15.8265 246.675L15.8466 246.68Z" fill="#24A148"/>
<path d="M13.634 271.241C16.083 272.979 26.4727 273.766 26.4727 273.766C26.4727 273.766 22.6507 264.462 20.1966 262.719C19.6214 262.231 18.9466 261.863 18.2151 261.638C17.4836 261.414 16.7115 261.338 15.9478 261.416C15.1842 261.494 14.4458 261.724 13.7797 262.09C13.1135 262.457 12.5342 262.953 12.0786 263.547C11.6231 264.14 11.3012 264.818 11.1335 265.538C10.9658 266.257 10.956 267.002 11.1047 267.726C11.2533 268.449 11.5572 269.135 11.997 269.739C12.4368 270.343 13.0029 270.853 13.6591 271.236L13.634 271.241Z" fill="#24A148"/>
<path opacity="0.1" d="M35.2028 198.703C35.2028 201.629 29.671 210.112 29.671 210.112C29.671 210.112 24.1393 201.629 24.1393 198.703C24.0832 197.974 24.1842 197.243 24.4359 196.553C24.6877 195.864 25.0849 195.232 25.6027 194.697C26.1204 194.162 26.7476 193.735 27.4451 193.443C28.1425 193.151 28.8951 193 29.6559 193C30.4168 193 31.1694 193.151 31.8669 193.443C32.5643 193.735 33.1915 194.162 33.7092 194.697C34.227 195.232 34.6242 195.864 34.876 196.553C35.1278 197.243 35.2287 197.974 35.1726 198.703H35.2028Z" fill="#24A148"/>
<path opacity="0.1" d="M44.3 214.906C42.6455 217.364 33.1912 221.608 33.1912 221.608C33.1912 221.608 33.3622 211.609 35.0167 209.151C35.8582 208.077 37.0927 207.349 38.4711 207.114C39.8496 206.879 41.2695 207.155 42.4446 207.886C43.6196 208.617 44.4624 209.748 44.803 211.051C45.1436 212.355 44.9566 213.734 44.2798 214.911L44.3 214.906Z" fill="#24A148"/>
<path opacity="0.1" d="M43.9027 242.605C41.1821 243.923 30.8276 243.011 30.8276 243.011C30.8276 243.011 36.2337 234.46 38.9543 233.142C40.2442 232.628 41.689 232.601 42.9985 233.068C44.3081 233.534 45.3855 234.458 46.0145 235.656C46.6434 236.853 46.7773 238.234 46.3893 239.522C46.0014 240.811 45.1202 241.91 43.9228 242.6L43.9027 242.605Z" fill="#24A148"/>
<path opacity="0.1" d="M38.6877 263.516C36.2387 265.254 25.8491 266.041 25.8491 266.041C25.8491 266.041 29.671 256.737 32.1251 254.994C33.306 254.305 34.7128 254.066 36.0686 254.323C37.4244 254.579 38.6309 255.314 39.4507 256.382C40.2706 257.45 40.6443 258.774 40.4985 260.094C40.3526 261.413 39.6977 262.632 38.6626 263.511L38.6877 263.516Z" fill="#24A148"/>
<path opacity="0.1" d="M21.6248 222.173C23.8124 224.21 33.9958 226.325 33.9958 226.325C33.9958 226.325 31.4813 216.615 29.3139 214.573C28.8082 214.029 28.1911 213.59 27.5011 213.285C26.8111 212.98 26.063 212.814 25.3035 212.799C24.5439 212.783 23.7892 212.918 23.0863 213.195C22.3835 213.472 21.7475 213.885 21.2182 214.408C20.6888 214.931 20.2774 215.553 20.0095 216.236C19.7417 216.919 19.6231 217.647 19.6612 218.375C19.6994 219.104 19.8934 219.817 20.2313 220.47C20.5691 221.124 21.0435 221.703 21.6248 222.173Z" fill="#24A148"/>
<path opacity="0.1" d="M15.8466 246.68C18.5672 247.998 28.9217 247.086 28.9217 247.086C28.9217 247.086 23.5156 238.535 20.795 237.217C19.5051 236.703 18.0603 236.676 16.7507 237.142C15.4412 237.609 14.3638 238.533 13.7348 239.731C13.1059 240.928 12.972 242.309 13.36 243.597C13.7479 244.886 14.6291 245.985 15.8265 246.675L15.8466 246.68Z" fill="#24A148"/>
<path opacity="0.1" d="M13.634 271.241C16.083 272.979 26.4727 273.766 26.4727 273.766C26.4727 273.766 22.6507 264.462 20.1966 262.719C19.6214 262.231 18.9466 261.863 18.2151 261.638C17.4836 261.414 16.7115 261.338 15.9478 261.416C15.1842 261.494 14.4458 261.724 13.7797 262.09C13.1135 262.457 12.5342 262.953 12.0786 263.547C11.6231 264.14 11.3012 264.818 11.1335 265.538C10.9658 266.257 10.956 267.002 11.1047 267.726C11.2533 268.449 11.5572 269.135 11.997 269.739C12.4368 270.343 13.0029 270.853 13.6591 271.236L13.634 271.241Z" fill="#24A148"/>
<path d="M355.705 286.01C355.705 286.01 348.383 262.135 357.078 244.566C360.776 237.218 361.892 228.916 360.257 220.908C359.449 217.111 358.281 213.394 356.767 209.803" stroke="#535461" stroke-width="2" stroke-miterlimit="10"/>
<path d="M362.203 198.703C362.203 201.629 356.671 210.112 356.671 210.112C356.671 210.112 351.139 201.629 351.139 198.703C351.083 197.974 351.184 197.243 351.436 196.553C351.688 195.864 352.085 195.232 352.603 194.697C353.12 194.162 353.748 193.735 354.445 193.443C355.142 193.151 355.895 193 356.656 193C357.417 193 358.169 193.151 358.867 193.443C359.564 193.735 360.191 194.162 360.709 194.697C361.227 195.232 361.624 195.864 361.876 196.553C362.128 197.243 362.229 197.974 362.173 198.703H362.203Z" fill="#24A148"/>
<path d="M371.3 214.906C369.645 217.364 360.191 221.608 360.191 221.608C360.191 221.608 360.362 211.609 362.017 209.151C362.858 208.077 364.093 207.349 365.471 207.114C366.85 206.879 368.27 207.155 369.445 207.886C370.62 208.617 371.462 209.748 371.803 211.051C372.144 212.355 371.957 213.734 371.28 214.911L371.3 214.906Z" fill="#24A148"/>
<path d="M370.903 242.605C368.182 243.923 357.828 243.011 357.828 243.011C357.828 243.011 363.234 234.46 365.954 233.142C367.244 232.628 368.689 232.601 369.999 233.068C371.308 233.534 372.386 234.458 373.014 235.656C373.643 236.853 373.777 238.234 373.389 239.522C373.001 240.811 372.12 241.91 370.923 242.6L370.903 242.605Z" fill="#24A148"/>
<path d="M365.688 263.516C363.239 265.254 352.849 266.041 352.849 266.041C352.849 266.041 356.671 256.737 359.125 254.994C360.306 254.305 361.713 254.066 363.069 254.323C364.424 254.579 365.631 255.314 366.451 256.382C367.271 257.45 367.644 258.774 367.498 260.094C367.353 261.413 366.698 262.632 365.663 263.511L365.688 263.516Z" fill="#24A148"/>
<path d="M348.625 222.173C350.812 224.21 360.996 226.325 360.996 226.325C360.996 226.325 358.481 216.615 356.314 214.573C355.808 214.029 355.191 213.59 354.501 213.285C353.811 212.98 353.063 212.814 352.303 212.799C351.544 212.783 350.789 212.918 350.086 213.195C349.383 213.472 348.748 213.885 348.218 214.408C347.689 214.931 347.277 215.553 347.01 216.236C346.742 216.919 346.623 217.647 346.661 218.375C346.699 219.104 346.893 219.817 347.231 220.47C347.569 221.124 348.043 221.703 348.625 222.173Z" fill="#24A148"/>
<path d="M342.847 246.68C345.567 247.998 355.922 247.086 355.922 247.086C355.922 247.086 350.516 238.535 347.795 237.217C346.505 236.703 345.06 236.676 343.751 237.142C342.441 237.609 341.364 238.533 340.735 239.731C340.106 240.928 339.972 242.309 340.36 243.597C340.748 244.886 341.629 245.985 342.827 246.675L342.847 246.68Z" fill="#24A148"/>
<path d="M340.634 271.241C343.083 272.979 353.473 273.766 353.473 273.766C353.473 273.766 349.651 264.462 347.197 262.719C346.621 262.231 345.947 261.863 345.215 261.638C344.484 261.414 343.711 261.338 342.948 261.416C342.184 261.494 341.446 261.724 340.78 262.09C340.114 262.457 339.534 262.953 339.079 263.547C338.623 264.14 338.301 264.818 338.133 265.538C337.966 266.257 337.956 267.002 338.105 267.726C338.253 268.449 338.557 269.135 338.997 269.739C339.437 270.343 340.003 270.853 340.659 271.236L340.634 271.241Z" fill="#24A148"/>
<path opacity="0.1" d="M362.203 198.703C362.203 201.629 356.671 210.112 356.671 210.112C356.671 210.112 351.139 201.629 351.139 198.703C351.083 197.974 351.184 197.243 351.436 196.553C351.688 195.864 352.085 195.232 352.603 194.697C353.12 194.162 353.748 193.735 354.445 193.443C355.142 193.151 355.895 193 356.656 193C357.417 193 358.169 193.151 358.867 193.443C359.564 193.735 360.191 194.162 360.709 194.697C361.227 195.232 361.624 195.864 361.876 196.553C362.128 197.243 362.229 197.974 362.173 198.703H362.203Z" fill="#24A148"/>
<path opacity="0.1" d="M371.3 214.906C369.645 217.364 360.191 221.608 360.191 221.608C360.191 221.608 360.362 211.609 362.017 209.151C362.858 208.077 364.093 207.349 365.471 207.114C366.85 206.879 368.27 207.155 369.445 207.886C370.62 208.617 371.462 209.748 371.803 211.051C372.144 212.355 371.957 213.734 371.28 214.911L371.3 214.906Z" fill="#24A148"/>
<path opacity="0.1" d="M370.903 242.605C368.182 243.923 357.828 243.011 357.828 243.011C357.828 243.011 363.234 234.46 365.954 233.142C367.244 232.628 368.689 232.601 369.999 233.068C371.308 233.534 372.386 234.458 373.014 235.656C373.643 236.853 373.777 238.234 373.389 239.522C373.001 240.811 372.12 241.91 370.923 242.6L370.903 242.605Z" fill="#24A148"/>
<path opacity="0.1" d="M365.688 263.516C363.239 265.254 352.849 266.041 352.849 266.041C352.849 266.041 356.671 256.737 359.125 254.994C360.306 254.305 361.713 254.066 363.069 254.323C364.424 254.579 365.631 255.314 366.451 256.382C367.271 257.45 367.644 258.774 367.498 260.094C367.353 261.413 366.698 262.632 365.663 263.511L365.688 263.516Z" fill="#24A148"/>
<path opacity="0.1" d="M348.625 222.173C350.812 224.21 360.996 226.325 360.996 226.325C360.996 226.325 358.481 216.615 356.314 214.573C355.808 214.029 355.191 213.59 354.501 213.285C353.811 212.98 353.063 212.814 352.303 212.799C351.544 212.783 350.789 212.918 350.086 213.195C349.383 213.472 348.748 213.885 348.218 214.408C347.689 214.931 347.277 215.553 347.01 216.236C346.742 216.919 346.623 217.647 346.661 218.375C346.699 219.104 346.893 219.817 347.231 220.47C347.569 221.124 348.043 221.703 348.625 222.173Z" fill="#24A148"/>
<path opacity="0.1" d="M342.847 246.68C345.567 247.998 355.922 247.086 355.922 247.086C355.922 247.086 350.516 238.535 347.795 237.217C346.505 236.703 345.06 236.676 343.751 237.142C342.441 237.609 341.364 238.533 340.735 239.731C340.106 240.928 339.972 242.309 340.36 243.597C340.748 244.886 341.629 245.985 342.827 246.675L342.847 246.68Z" fill="#24A148"/>
<path opacity="0.1" d="M340.634 271.241C343.083 272.979 353.473 273.766 353.473 273.766C353.473 273.766 349.651 264.462 347.197 262.719C346.621 262.231 345.947 261.863 345.215 261.638C344.484 261.414 343.711 261.338 342.948 261.416C342.184 261.494 341.446 261.724 340.78 262.09C340.114 262.457 339.534 262.953 339.079 263.547C338.623 264.14 338.301 264.818 338.133 265.538C337.966 266.257 337.956 267.002 338.105 267.726C338.253 268.449 338.557 269.135 338.997 269.739C339.437 270.343 340.003 270.853 340.659 271.236L340.634 271.241Z" fill="#24A148"/>
<path d="M389.705 286.01C389.705 286.01 382.383 262.135 391.078 244.566C394.776 237.218 395.892 228.916 394.257 220.908C393.449 217.111 392.281 213.394 390.767 209.803" stroke="#535461" stroke-width="2" stroke-miterlimit="10"/>
<path d="M396.203 198.703C396.203 201.629 390.671 210.112 390.671 210.112C390.671 210.112 385.139 201.629 385.139 198.703C385.083 197.974 385.184 197.243 385.436 196.553C385.688 195.864 386.085 195.232 386.603 194.697C387.12 194.162 387.748 193.735 388.445 193.443C389.142 193.151 389.895 193 390.656 193C391.417 193 392.169 193.151 392.867 193.443C393.564 193.735 394.192 194.162 394.709 194.697C395.227 195.232 395.624 195.864 395.876 196.553C396.128 197.243 396.229 197.974 396.173 198.703H396.203Z" fill="#24A148"/>
<path d="M405.3 214.906C403.645 217.364 394.211 221.603 394.211 221.603C394.211 221.603 394.382 211.604 396.037 209.146C396.404 208.508 396.904 207.95 397.505 207.505C398.107 207.061 398.797 206.74 399.533 206.562C400.27 206.385 401.036 206.355 401.785 206.474C402.534 206.594 403.249 206.86 403.886 207.256C404.523 207.652 405.069 208.17 405.489 208.777C405.908 209.385 406.193 210.068 406.326 210.786C406.459 211.504 406.436 212.24 406.259 212.949C406.083 213.657 405.756 214.324 405.3 214.906Z" fill="#24A148"/>
<path d="M404.903 242.605C402.182 243.923 391.828 243.011 391.828 243.011C391.828 243.011 397.234 234.46 399.954 233.142C400.606 232.766 401.332 232.523 402.087 232.429C402.841 232.335 403.608 232.391 404.338 232.593C405.069 232.796 405.748 233.142 406.334 233.608C406.919 234.074 407.398 234.652 407.741 235.304C408.083 235.956 408.282 236.669 408.325 237.398C408.367 238.127 408.253 238.857 407.988 239.542C407.724 240.227 407.315 240.852 406.788 241.378C406.26 241.904 405.625 242.32 404.923 242.6L404.903 242.605Z" fill="#24A148"/>
<path d="M399.688 263.516C397.239 265.254 386.849 266.041 386.849 266.041C386.849 266.041 390.671 256.737 393.125 254.994C394.306 254.305 395.713 254.066 397.069 254.323C398.424 254.579 399.631 255.314 400.451 256.382C401.271 257.45 401.644 258.774 401.499 260.094C401.353 261.413 400.698 262.632 399.663 263.511L399.688 263.516Z" fill="#24A148"/>
<path d="M382.625 222.173C384.812 224.21 394.996 226.325 394.996 226.325C394.996 226.325 392.481 216.615 390.314 214.573C389.244 213.709 387.872 213.265 386.475 213.333C385.078 213.4 383.76 213.973 382.785 214.937C381.81 215.9 381.252 217.182 381.222 218.524C381.193 219.867 381.694 221.17 382.625 222.173Z" fill="#24A148"/>
<path d="M376.847 246.68C379.567 247.998 389.922 247.086 389.922 247.086C389.922 247.086 384.516 238.535 381.795 237.217C380.505 236.703 379.06 236.676 377.751 237.142C376.441 237.609 375.364 238.533 374.735 239.731C374.106 240.928 373.972 242.309 374.36 243.597C374.748 244.886 375.629 245.985 376.827 246.675L376.847 246.68Z" fill="#24A148"/>
<path d="M374.634 271.241C377.083 272.979 387.473 273.766 387.473 273.766C387.473 273.766 383.651 264.462 381.197 262.719C380.621 262.231 379.947 261.863 379.215 261.638C378.484 261.414 377.711 261.338 376.948 261.416C376.184 261.494 375.446 261.724 374.78 262.09C374.114 262.457 373.534 262.953 373.079 263.547C372.623 264.14 372.301 264.818 372.133 265.538C371.966 266.257 371.956 267.002 372.105 267.726C372.253 268.449 372.557 269.135 372.997 269.739C373.437 270.344 374.003 270.853 374.659 271.236L374.634 271.241Z" fill="#24A148"/>
<path opacity="0.1" d="M396.203 198.703C396.203 201.629 390.671 210.112 390.671 210.112C390.671 210.112 385.139 201.629 385.139 198.703C385.083 197.974 385.184 197.243 385.436 196.553C385.688 195.864 386.085 195.232 386.603 194.697C387.12 194.162 387.748 193.735 388.445 193.443C389.142 193.151 389.895 193 390.656 193C391.417 193 392.169 193.151 392.867 193.443C393.564 193.735 394.192 194.162 394.709 194.697C395.227 195.232 395.624 195.864 395.876 196.553C396.128 197.243 396.229 197.974 396.173 198.703H396.203Z" fill="#24A148"/>
<path opacity="0.1" d="M405.3 214.906C403.645 217.364 394.211 221.603 394.211 221.603C394.211 221.603 394.382 211.604 396.037 209.146C396.404 208.508 396.904 207.95 397.505 207.505C398.107 207.061 398.797 206.74 399.533 206.562C400.27 206.385 401.036 206.355 401.785 206.474C402.534 206.594 403.249 206.86 403.886 207.256C404.523 207.652 405.069 208.17 405.489 208.777C405.908 209.385 406.193 210.068 406.326 210.786C406.459 211.504 406.436 212.24 406.259 212.949C406.083 213.657 405.756 214.324 405.3 214.906Z" fill="#24A148"/>
<path opacity="0.1" d="M404.903 242.605C402.182 243.923 391.828 243.011 391.828 243.011C391.828 243.011 397.234 234.46 399.954 233.142C400.606 232.766 401.332 232.523 402.087 232.429C402.841 232.335 403.608 232.391 404.338 232.593C405.069 232.796 405.748 233.142 406.334 233.608C406.919 234.074 407.398 234.652 407.741 235.304C408.083 235.956 408.282 236.669 408.325 237.398C408.367 238.127 408.253 238.857 407.988 239.542C407.724 240.227 407.315 240.852 406.788 241.378C406.26 241.904 405.625 242.32 404.923 242.6L404.903 242.605Z" fill="#24A148"/>
<path opacity="0.1" d="M399.688 263.516C397.239 265.254 386.849 266.041 386.849 266.041C386.849 266.041 390.671 256.737 393.125 254.994C394.306 254.305 395.713 254.066 397.069 254.323C398.424 254.579 399.631 255.314 400.451 256.382C401.271 257.45 401.644 258.774 401.499 260.094C401.353 261.413 400.698 262.632 399.663 263.511L399.688 263.516Z" fill="#24A148"/>
<path opacity="0.1" d="M382.625 222.173C384.812 224.21 394.996 226.325 394.996 226.325C394.996 226.325 392.481 216.615 390.314 214.573C389.244 213.709 387.872 213.265 386.475 213.333C385.078 213.4 383.76 213.973 382.785 214.937C381.81 215.9 381.252 217.182 381.222 218.524C381.193 219.867 381.694 221.17 382.625 222.173Z" fill="#24A148"/>
<path opacity="0.1" d="M376.847 246.68C379.567 247.998 389.922 247.086 389.922 247.086C389.922 247.086 384.516 238.535 381.795 237.217C380.505 236.703 379.06 236.676 377.751 237.142C376.441 237.609 375.364 238.533 374.735 239.731C374.106 240.928 373.972 242.309 374.36 243.597C374.748 244.886 375.629 245.985 376.827 246.675L376.847 246.68Z" fill="#24A148"/>
<path opacity="0.1" d="M374.634 271.241C377.083 272.979 387.473 273.766 387.473 273.766C387.473 273.766 383.651 264.462 381.197 262.719C380.621 262.231 379.947 261.863 379.215 261.638C378.484 261.414 377.711 261.338 376.948 261.416C376.184 261.494 375.446 261.724 374.78 262.09C374.114 262.457 373.534 262.953 373.079 263.547C372.623 264.14 372.301 264.818 372.133 265.538C371.966 266.257 371.956 267.002 372.105 267.726C372.253 268.449 372.557 269.135 372.997 269.739C373.437 270.344 374.003 270.853 374.659 271.236L374.634 271.241Z" fill="#24A148"/>
</g>
<g clip-path="url(#clip1)">
<path d="M61.5198 273.716C66.1527 282.406 75.9855 286.137 75.9855 286.137C75.9855 286.137 78.3067 275.778 73.6738 267.088C69.0409 258.398 59.2082 254.668 59.2082 254.668C59.2082 254.668 56.8869 265.026 61.5198 273.716Z" fill="#2F2E41"/>
<path d="M64.7042 270.857C73.0685 275.947 76.2899 286.056 76.2899 286.056C76.2899 286.056 65.95 287.914 57.5857 282.824C49.2214 277.735 46 267.625 46 267.625C46 267.625 56.3399 265.768 64.7042 270.857Z" fill="#24A148"/>
<path d="M252.233 18.5379H200.046V19.292H252.233V18.5379Z" fill="#C9C1C1"/>
<path d="M238.068 19.1035H237.323V26.0784H238.068V19.1035Z" fill="#C9C1C1"/>
<path d="M215.329 19.1035H214.584V26.0784H215.329V19.1035Z" fill="#C9C1C1"/>
<path d="M278.7 54.7318H226.512V55.4859H278.7V54.7318Z" fill="#C9C1C1"/>
<path d="M241.423 47.9455H240.677V54.9204H241.423V47.9455Z" fill="#C9C1C1"/>
<path d="M264.162 47.9455H263.416V54.9204H264.162V47.9455Z" fill="#C9C1C1"/>
<path d="M348.035 71.6978H295.847V72.4518H348.035V71.6978Z" fill="#C9C1C1"/>
<path d="M310.758 64.9114H310.012V71.8862H310.758V64.9114Z" fill="#C9C1C1"/>
<path d="M333.497 64.9114H332.751V71.8862H333.497V64.9114Z" fill="#C9C1C1"/>
<path d="M342.816 246.635H290.628V247.389H342.816V246.635Z" fill="#C9C1C1"/>
<path d="M305.539 239.849H304.794V246.823H305.539V239.849Z" fill="#C9C1C1"/>
<path d="M328.278 239.849H327.532V246.823H328.278V239.849Z" fill="#C9C1C1"/>
<path d="M253.724 125.612H201.537V126.366H253.724V125.612Z" fill="#C9C1C1"/>
<path d="M216.448 118.825H215.702V125.8H216.448V118.825Z" fill="#C9C1C1"/>
<path d="M239.186 118.825H238.441V125.8H239.186V118.825Z" fill="#C9C1C1"/>
<path d="M270.126 216.473H217.939V217.227H270.126V216.473Z" fill="#C9C1C1"/>
<path d="M232.849 209.687H232.104V216.662H232.849V209.687Z" fill="#C9C1C1"/>
<path d="M255.588 209.687H254.843V216.662H255.588V209.687Z" fill="#C9C1C1"/>
<path d="M353.626 188.951H301.439V189.705H353.626V188.951Z" fill="#C9C1C1"/>
<path d="M316.349 182.165H315.604V189.139H316.349V182.165Z" fill="#C9C1C1"/>
<path d="M339.088 182.165H338.343V189.139H339.088V182.165Z" fill="#C9C1C1"/>
<path d="M180.964 269.737H92.6981V269.095H180.329V237.946H100.118L96.2219 229.735L96.7945 229.458L100.518 237.303H180.964V269.737Z" fill="#2F2E41"/>
<path d="M104.446 285.472C108.128 285.472 111.113 282.453 111.113 278.729C111.113 275.004 108.128 271.985 104.446 271.985C100.763 271.985 97.7781 275.004 97.7781 278.729C97.7781 282.453 100.763 285.472 104.446 285.472Z" fill="#3F3D56"/>
<path d="M170.169 285.472C173.852 285.472 176.837 282.453 176.837 278.729C176.837 275.004 173.852 271.985 170.169 271.985C166.487 271.985 163.502 275.004 163.502 278.729C163.502 282.453 166.487 285.472 170.169 285.472Z" fill="#3F3D56"/>
<path d="M247.64 139.681C249.92 139.681 251.768 137.812 251.768 135.507C251.768 133.201 249.92 131.332 247.64 131.332C245.361 131.332 243.513 133.201 243.513 135.507C243.513 137.812 245.361 139.681 247.64 139.681Z" fill="#3F3D56"/>
<path d="M190.405 227.349H91.1932L69.7261 156.38H212.513L212.383 156.797L190.405 227.349ZM91.6629 226.706H189.939L211.647 157.022H70.5843L91.6629 226.706Z" fill="#2F2E41"/>
<path d="M182.66 223.656H95.5192L76.6639 160.715H202.078L201.964 161.085L182.66 223.656Z" fill="#F2F2F2"/>
<path d="M214.292 150.04L213.678 149.875L217.868 133.901H242.243V134.543H218.357L214.292 150.04Z" fill="#2F2E41"/>
<path d="M205.377 177.895H76.6633V178.537H205.377V177.895Z" fill="#2F2E41"/>
<path d="M198.006 201.557H83.8206V202.199H198.006V201.557Z" fill="#2F2E41"/>
<path d="M141.435 156.701H140.8V227.027H141.435V156.701Z" fill="#2F2E41"/>
<path d="M169.865 156.681L165.307 227.006L165.941 227.048L170.499 156.723L169.865 156.681Z" fill="#2F2E41"/>
<path d="M112.383 156.68L111.749 156.722L116.281 227.048L116.915 227.007L112.383 156.68Z" fill="#2F2E41"/>
<path d="M380 285.88H46V286.634H380V285.88Z" fill="#2F2E41"/>
<path d="M267.95 28.3285C267.95 28.3285 273.399 44.0149 270.046 46.4282C266.692 48.8414 281.364 68.55 281.364 68.55L298.969 63.7234L289.328 47.2326C289.328 47.2326 288.07 30.7418 288.07 28.3285C288.07 25.9152 267.95 28.3285 267.95 28.3285Z" fill="#A0616A"/>
<path opacity="0.9" d="M267.95 28.3285C267.95 28.3285 273.399 44.0149 270.046 46.4282C266.692 48.8414 281.364 68.55 281.364 68.55L298.969 63.7234L289.328 47.2326C289.328 47.2326 288.07 30.7418 288.07 28.3285C288.07 25.9152 267.95 28.3285 267.95 28.3285Z" fill="#FFDBAC"/>
<path d="M258.803 140.144C258.803 140.144 257.213 160.255 258.803 170.713C260.394 181.17 262.78 210.13 262.78 210.13C262.78 210.13 262.78 264.831 271.529 265.635C280.278 266.44 286.641 267.244 287.436 264.027C288.232 260.809 283.459 259.2 285.845 257.591C288.232 255.982 289.027 250.351 285.845 243.916C282.664 237.48 285.845 172.321 285.845 172.321L300.957 213.347C300.957 213.347 302.548 247.133 304.139 251.96C305.729 256.787 302.548 265.635 308.116 266.44C313.683 267.244 320.046 262.418 323.227 260.809C326.409 259.2 318.455 259.2 320.046 258.395C321.637 257.591 326.409 255.178 324.818 254.373C323.227 253.569 321.637 214.956 321.637 214.956C321.637 214.956 317.262 132.502 311.695 129.284C306.127 126.067 302.548 131.609 302.548 131.609L258.803 140.144Z" fill="#2F2E41"/>
<path d="M273.12 262.418V268.853C273.12 268.853 265.962 286.347 273.12 286.347C280.278 286.347 285.846 288.159 285.846 285.746V264.027L273.12 262.418Z" fill="#2F2E41"/>
<path d="M320.046 262.406V268.842C320.046 268.842 327.204 286.335 320.046 286.335C312.888 286.335 307.32 288.148 307.32 285.735V264.015L320.046 262.406Z" fill="#2F2E41"/>
<path d="M279.085 39.9927C286.992 39.9927 293.401 33.5099 293.401 25.513C293.401 17.516 286.992 11.0332 279.085 11.0332C271.178 11.0332 264.769 17.516 264.769 25.513C264.769 33.5099 271.178 39.9927 279.085 39.9927Z" fill="#FFDBAC"/>
<path d="M274.711 52.4614C274.711 52.4614 278.687 64.5278 285.05 62.1146L291.413 59.7012L302.548 136.927C302.548 136.927 293.799 149.797 281.073 141.753C268.348 133.709 274.711 52.4614 274.711 52.4614Z" fill="#24A148"/>
<path d="M285.846 50.0481L289.425 42.406C289.425 42.406 310.502 52.4614 313.683 55.6791C316.864 58.8968 316.864 63.7234 316.864 63.7234L311.297 83.8342C311.297 83.8342 312.888 128.078 312.888 129.687C312.888 131.296 318.455 140.144 314.478 136.927C310.502 133.709 309.706 130.491 306.525 135.318C303.343 140.144 296.185 145.775 296.185 145.775L285.846 50.0481Z" fill="#3F3D56"/>
<path d="M313.683 107.967L311.297 130.491C311.297 130.491 296.98 143.362 300.162 144.166C303.343 144.971 304.934 141.753 304.934 141.753C304.934 141.753 310.502 147.384 313.683 144.166C316.864 140.949 324.818 110.38 324.818 110.38L313.683 107.967Z" fill="#FFDBAC"/>
<path d="M279.39 5.04896C276.216 4.93421 272.82 4.87745 270.144 6.60727C268.913 7.47539 267.833 8.54457 266.948 9.77104C264.342 13.1033 262.09 17.2961 263.058 21.4305L264.183 20.987C264.183 22.0906 263.94 23.1804 263.473 24.1776C263.631 23.7119 264.161 24.4647 264.019 24.9357L262.781 29.0455C264.817 28.2905 267.349 29.8191 267.659 31.9899C267.801 27.2163 268.291 21.7426 272.119 18.9475C274.05 17.5379 276.493 17.1076 278.845 16.7255C281.013 16.373 283.287 16.0369 285.365 16.759C287.442 17.4812 289.211 19.63 288.74 21.8001C289.698 21.4664 290.769 22.1416 291.243 23.0475C291.716 23.9535 291.741 25.0222 291.755 26.0468C292.776 26.7766 293.938 25.3273 294.354 24.1348C295.331 21.3357 296.199 18.3561 295.673 15.4359C295.147 12.5156 292.794 9.72487 289.859 9.71497C290.215 9.31922 290.406 8.79885 290.389 8.26392L287.97 8.05719C288.584 7.96925 289.149 7.66809 289.568 7.2053C288.597 8.28619 280.961 5.10575 279.39 5.04896Z" fill="#2F2E41"/>
<path d="M278.687 47.6348C278.687 47.6348 272.213 41.2176 269.882 41.6107C267.552 42.0038 264.371 47.6348 264.371 47.6348C264.371 47.6348 245.282 54.0702 246.078 60.5057C246.873 66.9411 255.622 98.3139 255.622 98.3139C255.622 98.3139 262.78 136.122 256.417 140.144C250.054 144.166 286.641 154.624 287.436 149.797C288.232 144.971 289.822 96.705 287.436 89.4651C285.05 82.2253 278.687 47.6348 278.687 47.6348Z" fill="#3F3D56"/>
<path d="M306.525 60.5057H316.359C316.359 60.5057 323.227 91.074 324.023 94.2917C324.818 97.5095 326.409 112.794 325.613 112.794C324.818 112.794 308.911 109.576 308.911 111.989L306.525 60.5057Z" fill="#3F3D56"/>
<path d="M306.192 136.203H268.542C264.868 119.109 264.561 102.593 268.542 86.8133H306.192C300.116 102.309 299.736 118.712 306.192 136.203Z" fill="#F2F2F2"/>
<path d="M253.236 115.207L264.371 120.034C264.371 120.034 285.846 123.251 285.846 114.403C285.846 105.554 264.371 110.38 264.371 110.38L257.212 108.065L253.236 115.207Z" fill="#FFDBAC"/>
<path d="M255.622 55.6791L246.078 58.0924L238.919 100.727C238.919 100.727 236.533 111.989 240.51 112.794C244.487 113.598 255.622 120.034 255.622 120.034C255.622 120.034 257.213 107.967 260.394 107.967L252.44 101.532L257.213 73.3766L255.622 55.6791Z" fill="#3F3D56"/>
<path d="M120.646 138.053H68.4587V138.807H120.646V138.053Z" fill="#C9C1C1"/>
<path d="M83.3694 131.267H82.6239V138.242H83.3694V131.267Z" fill="#C9C1C1"/>
<path d="M106.108 131.267H105.363V138.242H106.108V131.267Z" fill="#C9C1C1"/>
<path d="M138.912 26.4554H86.7243V27.2094H138.912V26.4554Z" fill="#C9C1C1"/>
<path d="M124.747 27.0209H124.001V33.9958H124.747V27.0209Z" fill="#C9C1C1"/>
<path d="M102.008 27.0209H101.262V33.9958H102.008V27.0209Z" fill="#C9C1C1"/>
<path d="M191.472 100.728H139.285V101.482H191.472V100.728Z" fill="#C9C1C1"/>
<path d="M177.307 101.294H176.561V108.269H177.307V101.294Z" fill="#C9C1C1"/>
<path d="M154.568 101.294H153.823V108.269H154.568V101.294Z" fill="#C9C1C1"/>
<path d="M102.753 100.351H50.5658V101.105H102.753V100.351Z" fill="#C9C1C1"/>
<path d="M88.5882 100.917H87.8426V107.892H88.5882V100.917Z" fill="#C9C1C1"/>
<path d="M65.8493 100.917H65.1038V107.892H65.8493V100.917Z" fill="#C9C1C1"/>
<path d="M165.378 62.6493H113.191V63.4033H165.378V62.6493Z" fill="#C9C1C1"/>
<path d="M128.102 55.8629H127.356V62.8378H128.102V55.8629Z" fill="#C9C1C1"/>
<path d="M150.84 55.8629H150.095V62.8378H150.84V55.8629Z" fill="#C9C1C1"/>
</g>
<defs>
<clipPath id="clip0">
<rect width="515" height="379" fill="white" transform="translate(-75)"/>
</clipPath>
<clipPath id="clip1">
<rect width="334" height="282" fill="white" transform="translate(46 5)"/>
</clipPath>
</defs>
</svg>
